<?xml version="1.0" encoding="UTF-8" standalone="no"?>
<!-- Generator: flash2svg, http://dissentgraphics.com/tools/flash2svg -->

<svg
   xmlns:dc="http://purl.org/dc/elements/1.1/"
   xmlns:cc="http://creativecommons.org/ns#"
   xmlns:rdf="http://www.w3.org/1999/02/22-rdf-syntax-ns#"
   xmlns:svg="http://www.w3.org/2000/svg"
   xmlns="http://www.w3.org/2000/svg"
   xmlns:sodipodi="http://sodipodi.sourceforge.net/DTD/sodipodi-0.dtd"
   xmlns:inkscape="http://www.inkscape.org/namespaces/inkscape"
   id="Tor"
   image-rendering="optimizeSpeed"
   version="1.1"
   style="background-color:#ffffff"
   x="0px"
   y="0px"
   width="1024px"
   height="1024px"
   viewBox="0 0 1024 1024"
   enable-background="new 0 0 1024 1024"
   inkscape:version="0.48.4 r9939"
   sodipodi:docname="orfox_icon_v2.svg">
  <metadata
     id="metadata3977">
    <rdf:RDF>
      <cc:Work
         rdf:about="">
        <dc:format>image/svg+xml</dc:format>
        <dc:type
           rdf:resource="http://purl.org/dc/dcmitype/StillImage" />
      </cc:Work>
    </rdf:RDF>
  </metadata>
  <sodipodi:namedview
     pagecolor="#ffffff"
     bordercolor="#666666"
     borderopacity="1"
     objecttolerance="10"
     gridtolerance="10"
     guidetolerance="10"
     inkscape:pageopacity="0"
     inkscape:pageshadow="2"
     inkscape:window-width="1147"
     inkscape:window-height="818"
     id="namedview3975"
     showgrid="false"
     inkscape:zoom="0.23046875"
     inkscape:cx="175.88107"
     inkscape:cy="513.58454"
     inkscape:window-x="363"
     inkscape:window-y="132"
     inkscape:window-maximized="0"
     inkscape:current-layer="Tor" />
  <defs
     transform="matrix(1 0 0 1 0 0) "
     id="defs3953" />
  <g
     id="shadow">
    <g
       id="shape">
      <path
         id="path"
         fill="#000000"
         fill-opacity="0.09803921568627451"
         d="M969.65,351.3 Q961.05,330.45 950.25,310.45 C946.2,302.9 941.9,295.4 937.35,288.05 917.8,256.35 893.95,226.4 865.8,198.25 773.65,106.1 662.35,60 532,60 401.65,60 290.4,106.1 198.25,198.25 106.1,290.4 60,401.65 60,532 60,662.35 106.1,773.65 198.25,865.8 290.4,957.95 401.65,1004 532,1004 662.35,1004 773.65,957.95 865.8,865.8 916.55,815 953.35,758.4 976.15,696.05 994.7,645.2 1004,590.55 1004,532 1004,487.1 998.55,444.45 987.6,404.05 986.35,399.5 985.05,394.95 983.7,390.45 979.6,377.15 974.9,364.1 969.65,351.3z" />
    </g>
  </g>
  <g
     id="bg">
    <g
       id="shape2">
      <path
         id="path1"
         d="M969.75,394 C968.65,389.65 967.4,385 966.1,380.4 963.6,371.65 960.75,362.8 957.65,354.05 951.2,335.8 943.5,318 934.5,300.4 930.7,293 926.55,285.45 922.2,278 901.9,243.5 876.4,210.8 845.85,180.25 806.9,141.3 764.5,110.55 718.35,87.9 679.05,68.6 636.9,55.35 592.2,48.2 575.95,45.6 559.4,43.8 542.15,42.85 532.45,42.3 522.3,42 512.05,42 502.7,42 493.45,42.25 484.15,42.75 477.45,43.1 470.8,43.55 464.1,44.2 407.25,49.4 354.3,64 305.15,88.2 259.55,110.6 217.25,141.3 178.3,180.25 89.05,269.5 43,376.75 40.2,501.75 Q40.05,507.85 40.05,514 C40.05,644.35 86.15,755.65 178.3,847.8 263.55,933.05 365.15,978.85 483,985.2 483.35,985.25 483.75,985.25 484.15,985.3 484.3,985.3 484.4,985.3 484.55,985.3 493.05,985.75 501.15,986 509.05,986 510.25,986 511.15,986 512.05,986 522.35,986 532.55,985.7 542.15,985.2 544.65,985.05 546.9,984.9 549.1,984.75 569.3,983.3 589,980.7 607.8,977.05 615.75,975.5 623.6,973.75 631.2,971.9 712,951.6 783.35,910.3 845.85,847.8 851.95,841.7 857.85,835.55 863.35,829.5 903.2,785.65 933.1,737.9 953.2,686 962.3,662.55 969.35,638.25 974.5,612.95 979.7,587.15 982.8,560.3 983.75,532.5 983.95,526.45 984.05,520.25 984.05,514 984.05,513.35 984.05,512.65 984.05,512 984.05,511.65 984.05,511.35 984.05,511 984.05,507.9 984,504.8 983.95,501.65 983.1,464.45 978.4,428.65 969.75,394z"
         fill-opacity="1"
         fill="#4F3663" />
    </g>
  </g>
  <path
     inkscape:connector-curvature="0"
     d="m 686.21069,582.70555 c -1.93177,-1.97288 -4.58283,-3.08262 -7.34348,-3.08262 -78.07933,0 -82.75807,0 -110.78935,53.47317 -1.58926,3.02781 -1.56871,6.65845 0.0685,9.66572 1.62352,3.00727 4.65133,5.00754 8.06276,5.32951 0.17811,0.0206 4.58283,0.42471 11.24814,0.42471 16.98866,0 48.19846,-2.70585 66.26261,-20.8111 7.14483,-7.16538 11.54955,-15.88577 13.13196,-25.99676 0.66448,-0.0548 1.2947,-0.11645 1.87697,-0.15755 12.16608,-1.03439 20.2083,-1.71942 20.4138,-11.4331 0.0685,-2.76065 -1.00014,-5.43226 -2.93191,-7.41198 z"
     id="path4-8"
     style="fill:#4f3663;fill-opacity:1" />
  <path
     inkscape:connector-curvature="0"
     d="m 464.25524,633.0961 c -28.03128,-53.47317 -32.70316,-53.47317 -110.78933,-53.47317 -2.76066,0 -5.41171,1.10974 -7.34349,3.08262 -1.93177,1.97972 -2.99356,4.65133 -2.93191,7.41198 0.20551,9.70683 8.24772,10.39871 20.41379,11.4331 0.57542,0.048 1.21935,0.1096 1.87697,0.15755 1.58926,10.12469 5.99398,18.83138 13.13196,25.99676 18.06415,18.1121 49.26711,20.8111 66.26261,20.8111 0,0 0,0 0,0 6.65846,0 11.05633,-0.41101 11.24129,-0.42471 3.41143,-0.32197 6.42555,-2.32224 8.06276,-5.32951 1.63721,-3.00727 1.66462,-6.63791 0.0754,-9.66572 z"
     id="path6-8"
     style="fill:#4f3663;fill-opacity:1" />
  <path
     inkscape:connector-curvature="0"
     d="m 797.15129,217.4905 c -13.59093,-13.58407 -39.06021,-13.17991 -73.6746,1.1577 -62.37168,25.8392 -146.02711,96.09552 -164.02961,170.83877 -14.88562,-1.34265 -30.57958,-2.13728 -47.28053,-2.13728 -16.70779,0 -32.40175,0.79463 -47.28738,2.13728 -18.00249,-74.7501 -101.65793,-145.00642 -164.03644,-170.84562 -34.60754,-14.33076 -60.07683,-14.74177 -73.65405,-1.15085 -23.70192,23.70192 -27.39421,88.48488 -23.35941,136.76556 4.89794,58.54236 20.78371,109.24118 43.34163,139.93721 -2.6305,30.36723 -10.88507,146.02025 12.20717,183.3953 24.93497,40.34806 122.90061,82.19633 149.8838,93.1362 -0.26031,19.11909 0.63023,62.87173 13.22101,80.33991 17.49558,24.27049 67.85188,34.77194 89.68367,34.77194 21.83865,0 72.2018,-10.50145 89.68367,-34.77194 12.60449,-17.47503 13.42652,-61.54963 13.13881,-80.79888 27.0654,-10.86452 125.03105,-52.33602 149.97286,-92.67038 23.09909,-37.37505 14.83767,-153.06232 12.20717,-183.40215 51.76061,-70.63993 59.69321,-236.99177 19.98223,-276.70277 z m -45.0405,289.08805 c 1.57556,1.57556 3.56899,2.34964 5.60352,2.69216 3.32923,47.56824 5.55557,131.94295 -10.248,157.50814 -18.14635,29.36709 -92.19772,64.598 -132.54578,81.3332 v -45.42411 c 0,-5.67202 -4.60338,-10.2754 -10.2754,-10.2754 -5.67202,0 -10.2754,4.60338 -10.2754,10.2754 v 58.71362 6.85026 5.61722 c 0,0.30141 0.0685,0.58912 0.0891,0.88369 0.007,24.18828 -2.55515,54.95967 -9.27526,64.28973 -8.48748,11.78246 -34.51164,21.01662 -55.95297,24.60615 10.82342,-10.00138 21.914,-25.61999 21.914,-38.9369 0,-21.53038 -17.44763,-28.80537 -38.97116,-28.80537 -21.52353,0 -38.97801,7.27499 -38.97801,28.80537 0,13.31006 11.12483,28.94237 21.94825,38.9369 -21.44133,-3.57583 -47.48603,-12.81684 -55.98036,-24.60615 -6.68586,-9.27526 -9.29581,-39.62878 -9.35061,-63.59101 0.0685,-0.51377 0.1507,-1.04124 0.1507,-1.58241 v -9.30951 c 0,-0.1233 0,-0.25346 0,-0.37676 0,-0.0274 0,-0.0548 0,-0.0822 V 702.6811 c 0,-5.67202 -4.59653,-10.2754 -10.2754,-10.2754 -5.67887,0 -10.27539,4.60338 -10.27539,10.2754 v 45.88992 C 369.09881,731.69197 295.02004,696.15965 276.85314,666.77886 261.06328,641.22737 263.28961,556.83896 266.61199,509.26387 c 2.04138,-0.34252 4.03481,-1.1166 5.61037,-2.69216 4.01426,-4.0074 4.01426,-10.52201 0,-14.52941 -24.76371,-24.77056 -42.67715,-76.92163 -47.91075,-139.50565 -4.61023,-55.13094 2.7127,-105.81605 17.40652,-120.51672 5.0966,-5.0966 21.56463,-6.69271 51.26053,5.61036 64.94052,26.901 154.90505,104.52821 154.90505,180.33324 0,5.67887 4.59652,10.2754 10.27539,10.2754 5.67887,0 10.2754,-4.59653 10.2754,-10.2754 0,-2.7127 -0.10275,-5.41856 -0.30141,-8.12441 13.87179,-1.23305 28.5108,-1.93862 44.02665,-1.93862 15.51585,0 30.14802,0.71242 44.02665,1.93862 -0.1918,2.70585 -0.30141,5.41856 -0.30141,8.12441 0,5.67887 4.60338,10.2754 10.2754,10.2754 5.67202,0 10.2754,-4.59653 10.2754,-10.2754 0,-75.79133 89.95768,-153.42539 154.8982,-180.32639 29.67535,-12.29622 46.17764,-10.70696 51.27423,-5.61036 30.9221,30.9221 24.70891,204.80238 -30.50423,260.02237 -4.0074,4.01426 -4.0074,10.51516 0.007,14.52941 z"
     id="path8-0"
     style="fill:#78af52;fill-opacity:1" />
  <path
     style="fill:#eaeace;fill-opacity:1"
     d="m 462.6355,852.50032 c -25.77069,-12.9955 -28.86564,-22.7931 -28.93825,-91.6151 0,-31.9291 -1.44541,-60.2368 -3.13674,-62.9059 -1.69202,-2.6691 -6.97357,-4.3018 -11.73656,-3.6283 -8.03262,1.1357 -8.73888,3.0145 -9.73765,25.9062 -1.02891,23.5723 -1.4365,24.5702 -9.07112,22.2012 -27.12363,-8.4164 -99.5049,-51.247 -113.61918,-67.2326 -12.99496,-14.71792 -16.50298,-31.9536 -18.58135,-91.29648 -1.7475,-49.90494 -1.17756,-59.05477 4.46158,-71.56006 l 6.46597,-14.33871 -9.80753,-12.85876 c -24.61506,-32.27133 -38.06076,-80.73449 -40.8858,-147.36496 -2.1503,-50.72751 1.47691,-79.77202 12.07564,-96.67821 17.61272,-28.09519 109.25145,19.60307 166.48816,86.65757 19.39173,22.71836 33.8499,52.43495 38.58275,79.30285 2.3099,13.11449 5.88574,22.11094 9.31019,23.4251 6.36047,2.44068 15.52476,-3.90335 15.52476,-10.7469 0,-7.17572 8.91356,-9.01468 43.69373,-9.01468 24.50819,0 33.33407,1.3321 36.89347,5.56838 12.93604,15.39672 14.24033,16.19402 20.77274,12.69785 4.29238,-2.29703 7.33321,-9.62256 8.90124,-21.43927 7.43801,-56.07209 69.85078,-126.27005 143.75623,-161.68824 34.77263,-16.66451 55.40769,-17.63067 62.97243,-2.9485 14.5486,28.23645 16.3646,99.39338 4.05125,158.73893 -6.42144,30.94998 -25.57135,76.57336 -35.59535,84.80272 -6.44267,5.28964 -8.24635,20.45647 -2.82984,23.80365 5.43226,3.35745 8.25799,70.79207 4.4513,106.23665 -4.69586,43.72537 -10.81725,55.80167 -38.1135,75.18717 -19.27459,13.6884 -91.89973,52.8459 -98.01291,52.8459 -1.1988,0 -2.20442,-9.3883 -2.23524,-20.8628 -0.0685,-24.7592 -3.22305,-30.9905 -14.86782,-29.344 l -8.66079,1.2246 -1.99548,63.4955 c -1.40567,44.7465 -3.54844,66.619 -7.25648,74.0734 -5.01508,10.0828 -20.47819,20.209 -39.37944,25.7878 l -8.7197,2.5737 7.81273,-12.6413 c 10.08907,-16.3245 9.89246,-28.9182 -0.64393,-41.1665 -11.79615,-13.7141 -42.15105,-16.2806 -60.01585,-5.0744 -11.72012,7.3519 -12.1606,8.4262 -10.50694,25.6369 0.97068,10.0998 4.58625,21.1241 8.26005,25.1834 9.04988,10.0004 0.80901,9.6139 -20.12745,-0.9438 l 0,0 z m -0.54117,-212.0739 c 1.73038,-12.16224 -22.68122,-47.8041 -36.61124,-53.45392 -13.7889,-5.59235 -75.42484,-10.02722 -82.0922,-5.90671 -8.09633,5.00398 -3.22305,20.04175 6.90438,21.30412 6.46939,0.80641 10.94604,5.1627 15.60901,15.18984 9.89658,21.28049 36.02555,33.23756 69.65624,31.87593 23.0299,-0.93239 25.50422,-1.77264 26.53381,-9.00926 z m 160.69078,5.61187 c 18.85467,-6.39534 32.59082,-17.42337 38.08747,-30.5789 3.66627,-8.77341 7.62229,-12.21744 15.0103,-13.06681 7.09277,-0.81545 10.3624,-3.47302 11.15909,-9.07153 1.84409,-12.95378 -8.67998,-15.58668 -49.62469,-12.41501 -33.35737,2.58385 -38.01144,3.8395 -47.33328,12.77061 -13.73684,13.16073 -29.96306,43.45931 -27.17089,50.73573 2.72983,7.11359 40.65632,8.14353 59.872,1.62591 l 0,0 z"
     id="path3787"
     inkscape:connector-curvature="0" />
</svg>
