<?xml version="1.0" encoding="UTF-8"?>
<svg width="200" height="200" xmlns="http://www.w3.org/2000/svg">

 <metadata>image/svg+xmlOpen Clip Art Librarypalette2009-02-17T21:15:25http://openclipart.org/detail/21620/palette-by-benbenclip artclipartcolorcoloriconiconimagemediapaintpaintpalettepalettepngpublic domainsvg</metadata>
 <g>
  <title>Layer 1</title>
  <g id="layer1">
   <rect fill="#000000" stroke-width="2" stroke-miterlimit="4" stroke-dashoffset="0" ry="23.587006" rx="26.785715" y="0" x="0" height="200" width="200" id="rect6786"/>
   <g transform="matrix(4.65116, 0, 0, 4.65116, -1717.85, -314.201)" id="g6820">
    <path fill="#ffffff" stroke-width="1.924773" stroke-miterlimit="4" stroke-dasharray="3.84954572, 3.84954572" stroke-dashoffset="3.657068" d="m388.618042,70.128563c-4.746887,0 -18.367279,0.849472 -18.34375,12.3125c0.001312,0.644249 1.226776,2.886879 2.25,3.125c7.5755,1.762962 7.986664,7.834511 7.53125,12.625c-0.03479,0.362747 0.589233,2.891006 1.125,3.53125c4.344635,5.191872 5.822723,7.468742 11.6875,7.46875c11.729614,0 18.3125,-5.93206 18.3125,-17.8125c0,-11.880463 -10.832916,-21.25 -22.5625,-21.25zm-11.875,8.1875c0.986481,0.058029 2.139893,0.464394 3.21875,1.1875c2.157715,1.44622 3.225708,3.668251 2.375,4.9375c-0.850739,1.269257 -3.311005,1.10247 -5.46875,-0.34375c-2.157745,-1.446228 -3.194458,-3.637001 -2.34375,-4.90625c0.425354,-0.634628 1.232269,-0.933029 2.21875,-0.875z" id="path6822"/>
    <path fill="#ff7a00" stroke-width="1.924773" stroke-miterlimit="4" stroke-dasharray="3.84954572, 3.84954572" stroke-dashoffset="3.657068" id="path6824" d="m392.586761,76.615746a3.5,3.5 0 1 1 -7,0a3.5,3.5 0 1 1 7,0z"/>
    <path fill="#95d300" stroke-width="1.924773" stroke-miterlimit="4" stroke-dasharray="3.84954572, 3.84954572" stroke-dashoffset="3.657068" id="path6826" d="m402.524292,81.553246a3.5,3.5 0 1 1 -7,0a3.5,3.5 0 1 1 7,0z"/>
    <path fill="#00a6e4" stroke-width="1.924773" stroke-miterlimit="4" stroke-dasharray="3.84954572, 3.84954572" stroke-dashoffset="3.657068" id="path6828" d="m408.461792,90.615746a3.5,3.5 0 1 1 -7,0a3.5,3.5 0 1 1 7,0z"/>
    <path fill="#f9de00" stroke-width="1.924773" stroke-miterlimit="4" stroke-dasharray="3.84954572, 3.84954572" stroke-dashoffset="3.657068" id="path6830" d="m403.643463,99.60791a3.5,3.5 0 1 1 -7,0a3.5,3.5 0 1 1 7,0z"/>
    <path fill="#e600ad" stroke-width="1.924773" stroke-miterlimit="4" stroke-dasharray="3.84954572, 3.84954572" stroke-dashoffset="3.657068" id="path6832" d="m393.518463,100.60791a3.5,3.5 0 1 1 -7,0a3.5,3.5 0 1 1 7,0z"/>
   </g>
  </g>
 </g>
</svg>